<svg version="1.1" id="Layer_1" xmlns="http://www.w3.org/2000/svg" xmlns:xlink="http://www.w3.org/1999/xlink" x="0px" y="0px"
	 width="100%" viewBox="0 0 512 512" enable-background="new 0 0 512 512" xml:space="preserve">
<path fill="#010101" opacity="1.000000" stroke="none" 
	d="
M1.000000,196.000000 
	C1.000000,130.666672 1.000000,65.833336 1.000000,1.000000 
	C171.666672,1.000000 342.333344,1.000000 513.000000,1.000000 
	C513.000000,171.666672 513.000000,342.333344 513.000000,513.000000 
	C342.333344,513.000000 171.666672,513.000000 1.000000,513.000000 
	C1.000000,407.500000 1.000000,302.000000 1.000000,196.000000 
M194.935699,295.232117 
	C211.922150,295.232117 228.908600,295.232117 245.189804,295.232117 
	C243.184586,288.702667 241.375504,282.811951 239.440460,276.511047 
	C225.587036,283.558075 210.392639,287.551483 193.350296,283.705048 
	C186.711288,281.329651 180.072296,278.954285 174.344650,276.904968 
	C172.448441,282.966797 170.540451,289.066284 168.672897,295.036469 
	C176.839615,295.036469 185.428757,295.036469 194.935699,295.232117 
M247.986328,16.105505 
	C216.501953,16.070534 185.017456,15.962945 153.533264,16.023743 
	C128.680542,16.071732 110.059662,34.779758 109.944107,59.722168 
	C109.855354,78.879707 109.918884,98.037971 109.932442,117.195908 
	C109.933479,118.665672 110.075562,120.135338 110.148521,121.536606 
	C114.447861,122.934891 118.451988,124.237160 122.862106,125.671471 
	C122.862106,109.960716 122.727547,94.810158 122.898926,79.663063 
	C123.080040,63.654854 135.464523,51.219185 151.397583,50.874939 
	C158.723969,50.716648 166.056870,50.887917 173.386032,50.822311 
	C180.159714,50.761681 186.094955,53.017197 191.444244,57.040073 
	C203.512314,66.115715 210.558533,66.136719 222.351761,57.130909 
	C227.675110,53.065788 233.607697,50.813934 240.377014,50.817490 
	C245.869415,50.820374 251.361893,50.661140 257.778748,50.796688 
	C258.443634,50.824444 259.116974,50.934708 259.772217,50.867905 
	C276.854309,49.126366 292.105316,64.484581 291.187012,82.380272 
	C290.531158,95.161324 291.050629,108.003212 291.074463,120.817909 
	C291.077393,122.379288 291.259644,123.940331 291.381012,125.851410 
	C294.229675,124.771362 296.466736,123.552467 298.848785,123.104561 
	C302.687988,122.382652 304.205261,120.854843 304.138031,116.542374 
	C303.837067,97.241722 304.160553,77.932098 303.951874,58.629021 
	C303.791626,43.807770 297.266144,32.106525 285.239105,23.542433 
	C274.246857,15.715186 261.694519,15.288096 247.986328,16.105505 
M362.591522,211.617172 
	C359.440155,224.296661 356.288818,236.976151 352.813446,250.959412 
	C371.377258,236.519745 388.923035,222.871964 407.090485,209.005173 
	C412.868530,204.127197 418.744934,200.050308 427.114594,201.182465 
	C432.304840,201.884567 437.690796,201.139801 443.903168,201.284042 
	C453.551331,201.298462 463.224548,200.874512 472.842041,201.425049 
	C489.280212,202.366028 497.991730,191.206772 497.789307,176.715988 
	C497.329315,143.784744 497.646271,110.842690 497.639099,77.905029 
	C497.638763,76.243027 497.663574,74.571030 497.502594,72.920662 
	C496.405914,61.677769 488.584534,53.703987 477.313141,53.328671 
	C465.858887,52.947266 454.378052,53.365078 442.003296,53.232243 
	C401.086884,53.232243 360.170471,53.232243 319.032318,53.232243 
	C319.032318,76.714005 319.003479,99.673141 319.108948,122.631676 
	C319.114838,123.915337 319.969574,125.424873 320.869965,126.437302 
	C326.630432,132.914474 328.157318,140.489304 326.791809,148.779572 
	C325.575897,156.161850 324.238220,163.527512 322.775421,170.864838 
	C320.868561,180.429398 315.196259,186.454880 306.886108,187.996948 
	C305.305298,188.290283 303.700867,188.456467 301.845154,188.718307 
	C301.845154,193.115997 301.845154,197.024124 301.845154,201.330429 
	C303.599487,201.330429 305.238190,201.330429 306.876862,201.330460 
	C322.200562,201.330597 337.524353,201.305496 352.847961,201.341583 
	C360.484192,201.359573 362.729065,203.543030 362.591522,211.617172 
M233.247589,67.902718 
	C231.503815,69.175491 229.759323,70.447258 228.016418,71.721207 
	C215.740768,80.693932 199.560654,81.663353 187.475494,72.545219 
	C180.104507,66.983887 172.632019,64.960182 163.853668,65.633751 
	C160.707550,65.875160 157.527145,65.645905 154.362885,65.679237 
	C143.428345,65.794418 137.791458,71.410416 137.761322,82.339493 
	C137.717697,98.162338 137.749756,113.985397 137.749008,129.808365 
	C137.748489,140.688660 136.810867,142.131226 126.956146,146.235138 
	C126.956146,161.317001 126.589317,176.481216 127.127457,191.613251 
	C127.359344,198.133774 128.355835,205.065933 130.909988,210.989731 
	C142.506775,237.885986 163.118423,255.622269 190.455185,267.041382 
	C201.308380,271.385071 212.161346,271.356354 223.079437,267.205597 
	C241.920807,260.042633 257.475006,248.281998 269.999847,232.704041 
	C274.848572,226.673370 279.252747,219.918152 282.159088,212.798874 
	C284.920746,206.033966 286.443909,198.407013 286.774780,191.080673 
	C287.456390,175.988281 286.979858,160.843567 286.979858,145.866806 
	C278.261353,143.459076 276.143311,140.622849 276.137390,131.795547 
	C276.126007,114.796448 276.207794,97.796852 276.098877,80.798431 
	C276.042572,72.014389 270.181915,66.006546 261.451080,65.750320 
	C254.624802,65.549973 247.780731,65.557724 240.958710,65.828911 
	C238.596710,65.922813 236.277283,67.087135 233.247589,67.902718 
M294.898102,472.061096 
	C305.882111,472.068298 316.866150,472.078644 327.850159,472.081879 
	C339.088562,472.085205 340.277924,470.753784 341.017242,459.685211 
	C342.768951,433.459045 344.736237,407.247284 346.608551,381.029144 
	C348.066162,360.618439 349.568939,340.210693 350.928192,319.793427 
	C351.334900,313.684204 348.841675,310.405029 343.327576,310.344055 
	C329.861023,310.195160 316.390167,310.440155 302.020203,310.297424 
	C224.225449,310.282898 146.430695,310.258698 68.635941,310.269958 
	C61.417248,310.271027 58.666225,313.273315 59.175140,320.460480 
	C62.503735,367.468628 65.854576,414.475159 69.220749,461.480621 
	C69.863159,470.451263 71.650246,472.074341 80.595711,472.074554 
	C150.061569,472.076324 219.527420,472.076965 288.993286,472.066925 
	C290.653625,472.066681 292.313995,471.938324 294.898102,472.061096 
M397.856964,485.892761 
	C397.248322,450.771484 397.223663,415.626678 395.808075,380.537964 
	C394.982544,360.074615 382.841797,346.089050 364.832306,335.862823 
	C361.541687,381.716644 358.304718,426.822571 355.050873,472.164001 
	C367.698975,475.802612 373.210510,484.457092 371.765900,498.002350 
	C375.703064,498.002350 379.334900,498.026520 382.966370,497.997467 
	C391.333832,497.930481 395.275879,494.922394 397.856964,485.892761 
M19.936218,369.595886 
	C19.623926,370.715637 19.110542,371.821381 19.031214,372.957397 
	C18.406338,381.905792 17.546913,390.853210 17.355949,399.813629 
	C16.763535,427.610809 16.403597,455.413147 16.024195,483.214447 
	C15.920152,490.838379 19.365290,496.312683 25.942814,497.366913 
	C31.188496,498.207642 36.676487,497.536560 42.237873,497.536560 
	C40.631950,485.671906 45.469124,477.605499 55.176800,473.202271 
	C51.911724,427.930511 48.690445,383.265991 45.448341,338.312714 
	C33.652538,344.735016 25.288813,354.943542 19.936218,369.595886 
M221.500000,498.005127 
	C263.499420,498.005127 305.498871,498.005615 347.498291,498.003296 
	C348.997864,498.003204 350.893982,498.546967 351.912262,497.839600 
	C353.867279,496.481476 356.614319,494.416412 356.627838,492.626495 
	C356.641479,490.812042 353.933197,488.743561 352.046936,487.255524 
	C351.213257,486.597809 349.466675,487.074768 348.134521,487.074707 
	C253.969101,487.071106 159.803680,487.070526 65.638252,487.078735 
	C64.142899,487.078857 62.189911,486.620148 61.251122,487.373413 
	C59.504719,488.774689 57.215267,490.946228 57.268436,492.734192 
	C57.321053,494.503510 59.765274,496.508148 61.592365,497.797546 
	C62.606174,498.513000 64.503136,498.001465 66.002037,498.001587 
	C117.501358,498.005829 169.000671,498.005127 221.500000,498.005127 
M107.955910,172.453094 
	C109.143967,172.789932 110.332031,173.126770 111.958794,173.587997 
	C111.958794,162.079910 112.022835,151.143555 111.857483,140.210648 
	C111.841347,139.144073 110.629494,137.543427 109.599899,137.138474 
	C104.756912,135.233734 101.197899,137.176270 101.838402,142.288116 
	C103.086372,152.248199 105.473373,162.065598 107.955910,172.453094 
M310.579071,154.139877 
	C311.029327,151.684479 311.784058,149.237061 311.848694,146.771545 
	C311.920776,144.021576 311.877991,141.041153 310.854462,138.591721 
	C310.385559,137.469513 307.408020,136.849487 305.649536,136.993744 
	C304.360260,137.099518 302.170135,138.797440 302.146606,139.826141 
	C301.892242,150.950256 301.987823,162.082382 301.987823,173.231720 
	C306.097748,173.608704 307.407928,171.309753 307.975037,168.244278 
	C308.792358,163.826324 309.556946,159.398605 310.579071,154.139877 
z"/>
<path fill="#F2F2F2" opacity="1.000000" stroke="none" 
	d="
M293.974335,471.869720 
	C292.313995,471.938324 290.653625,472.066681 288.993286,472.066925 
	C219.527420,472.076965 150.061569,472.076324 80.595711,472.074554 
	C71.650246,472.074341 69.863159,470.451263 69.220749,461.480621 
	C65.854576,414.475159 62.503735,367.468628 59.175140,320.460480 
	C58.666225,313.273315 61.417248,310.271027 68.635941,310.269958 
	C146.430695,310.258698 224.225449,310.282898 302.496521,310.801575 
	C303.294586,317.246552 304.172882,323.219330 303.834076,329.122223 
	C302.809479,346.972504 301.293121,364.794281 300.007507,382.629974 
	C299.269073,392.874420 298.601746,403.124054 297.910583,413.371887 
	C296.595398,432.870972 295.286102,452.370422 293.974335,471.869720 
M235.013382,399.274872 
	C235.029800,398.442230 235.087692,397.608032 235.056396,396.777191 
	C234.605347,384.805450 228.883408,376.063873 218.034332,371.342682 
	C207.346786,366.691772 197.053741,368.390167 188.285797,376.192352 
	C179.336029,384.156372 176.792618,394.316986 180.115372,405.689331 
	C183.769882,418.197144 195.782776,426.009857 209.271652,425.168854 
	C222.415207,424.349396 232.458115,414.580200 235.013382,399.274872 
z"/>
<path fill="#FCC18B" opacity="1.000000" stroke="none" 
	d="
M189.867508,266.675323 
	C163.118423,255.622269 142.506775,237.885986 130.909988,210.989731 
	C128.355835,205.065933 127.359344,198.133774 127.127457,191.613251 
	C126.589317,176.481216 126.956146,161.317001 126.956146,146.235138 
	C136.810867,142.131226 137.748489,140.688660 137.749008,129.808365 
	C137.749756,113.985397 137.717697,98.162338 137.761322,82.339493 
	C137.791458,71.410416 143.428345,65.794418 154.362885,65.679237 
	C157.527145,65.645905 160.707550,65.875160 163.853668,65.633751 
	C172.632019,64.960182 180.104507,66.983887 187.475494,72.545219 
	C199.560654,81.663353 215.740768,80.693932 228.016418,71.721207 
	C229.759323,70.447258 231.503815,69.175491 233.644241,68.217896 
	C238.861710,80.188576 240.828156,92.449989 240.920853,104.934402 
	C241.133484,133.571167 241.054260,162.210892 240.919098,190.848602 
	C240.898178,195.282318 240.401321,199.819199 239.363266,204.124817 
	C234.398148,224.718887 221.685776,240.282623 206.166397,253.846451 
	C200.967346,258.390411 195.313492,262.413940 189.867508,266.675323 
z"/>
<path fill="#87DAFC" opacity="1.000000" stroke="none" 
	d="
M442.988922,201.044495 
	C437.690796,201.139801 432.304840,201.884567 427.114594,201.182465 
	C418.744934,200.050308 412.868530,204.127197 406.281311,209.051025 
	C393.307007,209.064880 381.140778,208.942566 368.977844,209.091080 
	C366.985809,209.115402 365.008362,210.332687 363.024170,210.998627 
	C362.729065,203.543030 360.484192,201.359573 352.847961,201.341583 
	C337.524353,201.305496 322.200562,201.330597 306.876862,201.330460 
	C305.238190,201.330429 303.599487,201.330429 301.845154,201.330429 
	C301.845154,197.024124 301.845154,193.115997 301.845154,188.718307 
	C303.700867,188.456467 305.305298,188.290283 306.886108,187.996948 
	C315.196259,186.454880 320.868561,180.429398 322.775421,170.864838 
	C324.238220,163.527512 325.575897,156.161850 326.791809,148.779572 
	C328.157318,140.489304 326.630432,132.914474 320.869965,126.437302 
	C319.969574,125.424873 319.114838,123.915337 319.108948,122.631676 
	C319.003479,99.673141 319.032318,76.714005 319.032318,53.232243 
	C360.170471,53.232243 401.086884,53.232243 442.524750,53.651436 
	C447.280212,58.872047 450.900146,64.095375 450.957153,70.738853 
	C451.091064,86.330795 450.936890,101.925209 450.569519,117.370926 
	C447.994232,115.795074 445.760956,114.347198 443.500488,112.943199 
	C439.715118,110.592094 436.704742,111.132080 434.708893,114.678314 
	C432.710785,118.228500 433.706512,120.857994 437.225372,122.966614 
	C441.973511,125.811836 446.533478,128.971054 451.533722,132.229858 
	C445.949341,135.851135 441.051880,138.994919 436.189240,142.191635 
	C432.990417,144.294556 433.032196,147.182480 434.886536,149.989883 
	C436.687500,152.716415 439.179138,154.196320 442.513916,152.124588 
	C445.327667,150.376556 448.170166,148.674850 451.009460,147.424225 
	C451.025208,157.535690 450.671173,167.193161 451.140564,176.810471 
	C451.594452,186.109970 449.229431,194.149963 442.988922,201.044495 
M388.181885,142.678513 
	C386.512207,146.114960 384.866486,149.563309 383.165894,152.984406 
	C381.579620,156.175476 380.339783,159.515411 384.517120,161.497986 
	C388.511292,163.393631 390.509247,160.757034 392.135681,157.403778 
	C402.214050,136.625473 412.356171,115.877884 422.552002,95.156929 
	C424.130005,91.949936 424.801636,89.019257 421.038757,87.103912 
	C416.991791,85.043922 415.000977,87.543678 413.375458,90.914650 
	C405.148438,107.975998 396.843689,124.999870 388.181885,142.678513 
M366.899170,140.630417 
	C362.776733,137.946808 358.654297,135.263214 353.988617,132.225983 
	C359.264252,128.788025 364.075714,125.611015 368.931152,122.502739 
	C372.280731,120.358490 372.744080,117.525345 370.609711,114.445778 
	C368.633636,111.594612 366.061890,110.168365 362.572693,112.486481 
	C355.389709,117.258598 348.062500,121.816124 340.933655,126.666260 
	C336.232239,129.864883 336.086212,134.495178 340.636810,137.603928 
	C347.892639,142.560745 355.218048,147.453186 362.831726,151.818787 
	C364.465088,152.755356 368.092804,152.121994 369.688538,150.833313 
	C373.439026,147.804504 372.471313,144.448303 366.899170,140.630417 
z"/>
<path fill="#E9AB65" opacity="1.000000" stroke="none" 
	d="
M190.161346,266.858337 
	C195.313492,262.413940 200.967346,258.390411 206.166397,253.846451 
	C221.685776,240.282623 234.398148,224.718887 239.363266,204.124817 
	C240.401321,199.819199 240.898178,195.282318 240.919098,190.848602 
	C241.054260,162.210892 241.133484,133.571167 240.920853,104.934402 
	C240.828156,92.449989 238.861710,80.188576 233.989655,68.147797 
	C236.277283,67.087135 238.596710,65.922813 240.958710,65.828911 
	C247.780731,65.557724 254.624802,65.549973 261.451080,65.750320 
	C270.181915,66.006546 276.042572,72.014389 276.098877,80.798431 
	C276.207794,97.796852 276.126007,114.796448 276.137390,131.795547 
	C276.143311,140.622849 278.261353,143.459076 286.979858,145.866806 
	C286.979858,160.843567 287.456390,175.988281 286.774780,191.080673 
	C286.443909,198.407013 284.920746,206.033966 282.159088,212.798874 
	C279.252747,219.918152 274.848572,226.673370 269.999847,232.704041 
	C257.475006,248.281998 241.920807,260.042633 223.079437,267.205597 
	C212.161346,271.356354 201.308380,271.385071 190.161346,266.858337 
z"/>
<path fill="#CBD3DC" opacity="1.000000" stroke="none" 
	d="
M294.436218,471.965393 
	C295.286102,452.370422 296.595398,432.870972 297.910583,413.371887 
	C298.601746,403.124054 299.269073,392.874420 300.007507,382.629974 
	C301.293121,364.794281 302.809479,346.972504 303.834076,329.122223 
	C304.172882,323.219330 303.294586,317.246552 302.946899,310.916138 
	C316.390167,310.440155 329.861023,310.195160 343.327576,310.344055 
	C348.841675,310.405029 351.334900,313.684204 350.928192,319.793427 
	C349.568939,340.210693 348.066162,360.618439 346.608551,381.029144 
	C344.736237,407.247284 342.768951,433.459045 341.017242,459.685211 
	C340.277924,470.753784 339.088562,472.085205 327.850159,472.081879 
	C316.866150,472.078644 305.882111,472.068298 294.436218,471.965393 
z"/>
<path fill="#59BDE6" opacity="1.000000" stroke="none" 
	d="
M443.446045,201.164276 
	C449.229431,194.149963 451.594452,186.109970 451.140564,176.810471 
	C450.671173,167.193161 451.025208,157.535690 451.180603,147.134857 
	C455.628815,143.603470 459.991730,140.942947 464.182861,138.034912 
	C469.503845,134.342941 469.421265,129.931229 464.046478,126.247200 
	C459.708069,123.273506 455.284882,120.423500 450.899292,117.518616 
	C450.936890,101.925209 451.091064,86.330795 450.957153,70.738853 
	C450.900146,64.095375 447.280212,58.872047 442.977539,53.751770 
	C454.378052,53.365078 465.858887,52.947266 477.313141,53.328671 
	C488.584534,53.703987 496.405914,61.677769 497.502594,72.920662 
	C497.663574,74.571030 497.638763,76.243027 497.639099,77.905029 
	C497.646271,110.842690 497.329315,143.784744 497.789307,176.715988 
	C497.991730,191.206772 489.280212,202.366028 472.842041,201.425049 
	C463.224548,200.874512 453.551331,201.298462 443.446045,201.164276 
z"/>
<path fill="#416074" opacity="1.000000" stroke="none" 
	d="
M256.854340,50.573807 
	C251.361893,50.661140 245.869415,50.820374 240.377014,50.817490 
	C233.607697,50.813934 227.675110,53.065788 222.351761,57.130909 
	C210.558533,66.136719 203.512314,66.115715 191.444244,57.040073 
	C186.094955,53.017197 180.159714,50.761681 173.386032,50.822311 
	C166.056870,50.887917 158.723969,50.716648 151.397583,50.874939 
	C135.464523,51.219185 123.080040,63.654854 122.898926,79.663063 
	C122.727547,94.810158 122.862106,109.960716 122.862106,125.671471 
	C118.451988,124.237160 114.447861,122.934891 110.148521,121.536606 
	C110.075562,120.135338 109.933479,118.665672 109.932442,117.195908 
	C109.918884,98.037971 109.855354,78.879707 109.944107,59.722168 
	C110.059662,34.779758 128.680542,16.071732 153.533264,16.023743 
	C185.017456,15.962945 216.501953,16.070534 248.473358,16.545586 
	C249.340530,18.077425 249.671722,19.189184 250.108444,20.257814 
	C254.081909,29.980804 257.766846,39.764664 256.854340,50.573807 
z"/>
<path fill="#33BAA3" opacity="1.000000" stroke="none" 
	d="
M397.810669,486.321320 
	C395.275879,494.922394 391.333832,497.930481 382.966370,497.997467 
	C379.334900,498.026520 375.703064,498.002350 371.765900,498.002350 
	C373.210510,484.457092 367.698975,475.802612 355.050873,472.164001 
	C358.304718,426.822571 361.541687,381.716644 364.832306,335.862823 
	C382.841797,346.089050 394.982544,360.074615 395.808075,380.537964 
	C397.223663,415.626678 397.248322,450.771484 397.810669,486.321320 
z"/>
<path fill="#33BAA3" opacity="1.000000" stroke="none" 
	d="
M20.024399,369.204590 
	C25.288813,354.943542 33.652538,344.735016 45.448341,338.312714 
	C48.690445,383.265991 51.911724,427.930511 55.176800,473.202271 
	C45.469124,477.605499 40.631950,485.671906 42.237873,497.536560 
	C36.676487,497.536560 31.188496,498.207642 25.942814,497.366913 
	C19.365290,496.312683 15.920152,490.838379 16.024195,483.214447 
	C16.403597,455.413147 16.763535,427.610809 17.355949,399.813629 
	C17.546913,390.853210 18.406338,381.905792 19.031214,372.957397 
	C19.110542,371.821381 19.623926,370.715637 20.024399,369.204590 
z"/>
<path fill="#CAD3DC" opacity="1.000000" stroke="none" 
	d="
M221.000000,498.005127 
	C169.000671,498.005127 117.501358,498.005829 66.002037,498.001587 
	C64.503136,498.001465 62.606174,498.513000 61.592365,497.797546 
	C59.765274,496.508148 57.321053,494.503510 57.268436,492.734192 
	C57.215267,490.946228 59.504719,488.774689 61.251122,487.373413 
	C62.189911,486.620148 64.142899,487.078857 65.638252,487.078735 
	C159.803680,487.070526 253.969101,487.071106 348.134521,487.074707 
	C349.466675,487.074768 351.213257,486.597809 352.046936,487.255524 
	C353.933197,488.743561 356.641479,490.812042 356.627838,492.626495 
	C356.614319,494.416412 353.867279,496.481476 351.912262,497.839600 
	C350.893982,498.546967 348.997864,498.003204 347.498291,498.003296 
	C305.498871,498.005615 263.499420,498.005127 221.000000,498.005127 
z"/>
<path fill="#2C4355" opacity="1.000000" stroke="none" 
	d="
M257.316528,50.685249 
	C257.766846,39.764664 254.081909,29.980804 250.108444,20.257814 
	C249.671722,19.189184 249.340530,18.077425 248.929352,16.625227 
	C261.694519,15.288096 274.246857,15.715186 285.239105,23.542433 
	C297.266144,32.106525 303.791626,43.807770 303.951874,58.629021 
	C304.160553,77.932098 303.837067,97.241722 304.138031,116.542374 
	C304.205261,120.854843 302.687988,122.382652 298.848785,123.104561 
	C296.466736,123.552467 294.229675,124.771362 291.381012,125.851410 
	C291.259644,123.940331 291.077393,122.379288 291.074463,120.817909 
	C291.050629,108.003212 290.531158,95.161324 291.187012,82.380272 
	C292.105316,64.484581 276.854309,49.126366 259.772217,50.867905 
	C259.116974,50.934708 258.443634,50.824444 257.316528,50.685249 
z"/>
<path fill="#59BCE6" opacity="1.000000" stroke="none" 
	d="
M362.807861,211.307892 
	C365.008362,210.332687 366.985809,209.115402 368.977844,209.091080 
	C381.140778,208.942566 393.307007,209.064880 405.970459,209.160538 
	C388.923035,222.871964 371.377258,236.519745 352.813446,250.959412 
	C356.288818,236.976151 359.440155,224.296661 362.807861,211.307892 
z"/>
<path fill="#E5A863" opacity="1.000000" stroke="none" 
	d="
M194.007507,284.043854 
	C210.392639,287.551483 225.587036,283.558075 239.440460,276.511047 
	C241.375504,282.811951 243.184586,288.702667 245.189804,295.232117 
	C228.908600,295.232117 211.922150,295.232117 194.483734,294.674683 
	C194.023682,290.759460 194.015594,287.401642 194.007507,284.043854 
z"/>
<path fill="#F7BD88" opacity="1.000000" stroke="none" 
	d="
M193.678894,283.874451 
	C194.015594,287.401642 194.023682,290.759460 194.024841,294.576843 
	C185.428757,295.036469 176.839615,295.036469 168.672897,295.036469 
	C170.540451,289.066284 172.448441,282.966797 174.344650,276.904968 
	C180.072296,278.954285 186.711288,281.329651 193.678894,283.874451 
z"/>
<path fill="#E3A662" opacity="1.000000" stroke="none" 
	d="
M107.672287,172.197586 
	C105.473373,162.065598 103.086372,152.248199 101.838402,142.288116 
	C101.197899,137.176270 104.756912,135.233734 109.599899,137.138474 
	C110.629494,137.543427 111.841347,139.144073 111.857483,140.210648 
	C112.022835,151.143555 111.958794,162.079910 111.958794,173.587997 
	C110.332031,173.126770 109.143967,172.789932 107.672287,172.197586 
z"/>
<path fill="#F7BD88" opacity="1.000000" stroke="none" 
	d="
M310.461548,154.557465 
	C309.556946,159.398605 308.792358,163.826324 307.975037,168.244278 
	C307.407928,171.309753 306.097748,173.608704 301.987823,173.231720 
	C301.987823,162.082382 301.892242,150.950256 302.146606,139.826141 
	C302.170135,138.797440 304.360260,137.099518 305.649536,136.993744 
	C307.408020,136.849487 310.385559,137.469513 310.854462,138.591721 
	C311.877991,141.041153 311.920776,144.021576 311.848694,146.771545 
	C311.784058,149.237061 311.029327,151.684479 310.461548,154.557465 
z"/>
<path fill="#040404" opacity="1.000000" stroke="none" 
	d="
M234.993500,399.721130 
	C232.458115,414.580200 222.415207,424.349396 209.271652,425.168854 
	C195.782776,426.009857 183.769882,418.197144 180.115372,405.689331 
	C176.792618,394.316986 179.336029,384.156372 188.285797,376.192352 
	C197.053741,368.390167 207.346786,366.691772 218.034332,371.342682 
	C228.883408,376.063873 234.605347,384.805450 235.056396,396.777191 
	C235.087692,397.608032 235.029800,398.442230 234.993500,399.721130 
M219.524139,393.410400 
	C216.618683,386.708252 211.980042,383.535339 205.838882,384.049377 
	C200.306335,384.512482 195.326767,388.766571 194.110916,394.068665 
	C192.846542,399.582306 195.176483,405.387573 200.042252,408.307312 
	C204.551849,411.013367 209.275467,411.084564 213.748108,408.331360 
	C219.000687,405.098145 220.759079,400.163635 219.524139,393.410400 
z"/>
<path fill="#040607" opacity="1.000000" stroke="none" 
	d="
M388.374023,142.357697 
	C396.843689,124.999870 405.148438,107.975998 413.375458,90.914650 
	C415.000977,87.543678 416.991791,85.043922 421.038757,87.103912 
	C424.801636,89.019257 424.130005,91.949936 422.552002,95.156929 
	C412.356171,115.877884 402.214050,136.625473 392.135681,157.403778 
	C390.509247,160.757034 388.511292,163.393631 384.517120,161.497986 
	C380.339783,159.515411 381.579620,156.175476 383.165894,152.984406 
	C384.866486,149.563309 386.512207,146.114960 388.374023,142.357697 
z"/>
<path fill="#030506" opacity="1.000000" stroke="none" 
	d="
M367.208710,140.822083 
	C372.471313,144.448303 373.439026,147.804504 369.688538,150.833313 
	C368.092804,152.121994 364.465088,152.755356 362.831726,151.818787 
	C355.218048,147.453186 347.892639,142.560745 340.636810,137.603928 
	C336.086212,134.495178 336.232239,129.864883 340.933655,126.666260 
	C348.062500,121.816124 355.389709,117.258598 362.572693,112.486481 
	C366.061890,110.168365 368.633636,111.594612 370.609711,114.445778 
	C372.744080,117.525345 372.280731,120.358490 368.931152,122.502739 
	C364.075714,125.611015 359.264252,128.788025 353.988617,132.225983 
	C358.654297,135.263214 362.776733,137.946808 367.208710,140.822083 
z"/>
<path fill="#020405" opacity="1.000000" stroke="none" 
	d="
M450.569519,117.370926 
	C455.284882,120.423500 459.708069,123.273506 464.046478,126.247200 
	C469.421265,129.931229 469.503845,134.342941 464.182861,138.034912 
	C459.991730,140.942947 455.628815,143.603470 451.171082,146.663300 
	C448.170166,148.674850 445.327667,150.376556 442.513916,152.124588 
	C439.179138,154.196320 436.687500,152.716415 434.886536,149.989883 
	C433.032196,147.182480 432.990417,144.294556 436.189240,142.191635 
	C441.051880,138.994919 445.949341,135.851135 451.533722,132.229858 
	C446.533478,128.971054 441.973511,125.811836 437.225372,122.966614 
	C433.706512,120.857994 432.710785,118.228500 434.708893,114.678314 
	C436.704742,111.132080 439.715118,110.592094 443.500488,112.943199 
	C445.760956,114.347198 447.994232,115.795074 450.569519,117.370926 
z"/>
<path fill="#FBFBFB" opacity="1.000000" stroke="none" 
	d="
M219.664246,393.790527 
	C220.759079,400.163635 219.000687,405.098145 213.748108,408.331360 
	C209.275467,411.084564 204.551849,411.013367 200.042252,408.307312 
	C195.176483,405.387573 192.846542,399.582306 194.110916,394.068665 
	C195.326767,388.766571 200.306335,384.512482 205.838882,384.049377 
	C211.980042,383.535339 216.618683,386.708252 219.664246,393.790527 
z"/>
</svg>