<svg version="1.1" id="Layer_1" xmlns="http://www.w3.org/2000/svg" xmlns:xlink="http://www.w3.org/1999/xlink" x="0px" y="0px"
	 width="100%" viewBox="0 0 512 512" enable-background="new 0 0 512 512" xml:space="preserve">
<path fill="#020201" opacity="1.000000" stroke="none" 
	d="
M1.226317,374.393890 
	C1.000000,274.979095 1.000000,175.958206 1.000000,76.468658 
	C2.686407,64.536530 9.191357,56.428223 18.906513,50.700439 
	C25.164320,47.011009 26.339760,47.545086 28.915823,54.378983 
	C29.149530,54.998970 29.317675,55.639538 29.651217,56.681278 
	C31.712225,61.530014 30.906143,64.937271 26.630259,67.782303 
	C20.825308,71.644730 18.387129,77.613045 17.721073,84.375732 
	C17.492332,86.698204 17.586416,89.035362 17.586384,91.366394 
	C17.585457,157.480789 17.581795,223.595169 17.584717,289.709564 
	C17.584784,291.207489 17.656084,292.707458 17.493698,294.680603 
	C18.015339,306.375946 18.015341,306.379547 29.615494,306.374023 
	C32.615005,306.372589 35.615772,306.324860 38.613796,306.351105 
	C42.007839,306.380829 43.441746,304.751190 43.359028,301.452576 
	C43.313137,299.622467 43.375385,297.786987 43.375404,295.953949 
	C43.376171,217.294540 43.377224,138.635132 43.378647,59.975723 
	C43.378677,58.310272 43.299339,56.642540 43.485165,54.492180 
	C43.205730,38.208111 43.414078,22.410496 43.404003,6.613414 
	C43.402943,4.949530 43.496674,3.278337 44.698582,1.393626 
	C73.354225,1.000000 101.708458,1.000000 130.531342,1.000000 
	C132.328247,2.451184 132.572617,4.257482 132.568909,6.098537 
	C132.537582,21.658752 132.913742,37.220837 132.301788,53.259132 
	C131.603775,56.864388 131.593796,60.029152 131.593964,63.198158 
	C131.598282,141.014252 131.595810,218.830353 131.599487,296.646454 
	C131.599945,306.390137 131.611938,306.390778 141.158997,306.402130 
	C143.158554,306.404510 145.158646,306.433014 147.157547,306.392029 
	C152.840073,306.275452 153.364349,305.835175 153.376816,299.984283 
	C153.435364,272.490479 153.400024,244.996506 153.401962,217.502609 
	C153.404831,176.678314 153.464874,135.853806 153.331055,95.029961 
	C153.312286,89.300491 154.614639,84.302521 157.677383,79.471809 
	C162.582245,71.735634 167.281265,63.862331 171.974152,55.491192 
	C177.418549,45.448635 183.292740,36.158844 189.026657,26.791080 
	C191.812332,22.240013 194.010849,22.239630 196.676086,26.638544 
	C202.281921,35.890903 208.149414,44.991718 213.386581,54.961693 
	C218.002289,63.370392 222.752640,71.205849 227.617477,78.961418 
	C230.473022,83.513763 231.666336,88.224663 231.659286,93.589371 
	C231.570541,161.033859 231.598969,228.478516 231.601456,295.923126 
	C231.601837,306.393463 231.606979,306.398438 241.918686,306.398651 
	C323.351807,306.400330 404.784912,306.399658 486.218048,306.399475 
	C486.884155,306.399475 487.550293,306.401398 488.216400,306.398438 
	C496.301819,306.362396 496.315765,306.349792 496.391510,298.415314 
	C496.399445,297.582642 496.396301,296.750153 496.496368,295.439148 
	C496.220642,288.632294 496.393799,282.303619 496.392059,275.976959 
	C496.375031,214.192566 496.382538,152.408173 496.379150,90.623772 
	C496.379028,88.126564 496.474548,85.623512 496.203857,83.135330 
	C495.065887,72.674965 487.018829,64.771713 476.483795,63.768375 
	C473.993591,63.531216 471.491302,63.620518 468.993927,63.620419 
	C394.386353,63.617405 319.778778,63.618114 245.171219,63.617935 
	C243.339340,63.617928 241.507370,63.628822 239.675583,63.612740 
	C231.505737,63.541012 231.127411,63.205112 229.923920,54.611603 
	C229.272202,46.510876 230.274979,45.435219 238.538513,45.431671 
	C308.429443,45.401691 378.320404,45.418415 448.211334,45.416634 
	C457.862946,45.416386 467.520752,45.192959 477.164703,45.472496 
	C492.090179,45.905117 502.961304,53.144817 510.235931,66.037956 
	C511.837433,68.876350 512.132996,72.027954 512.774292,75.578842 
	C513.000000,175.020889 513.000000,274.041779 513.000000,373.531342 
	C508.242798,393.991577 494.828522,404.514557 473.998901,404.523224 
	C431.884521,404.540710 389.770142,404.528229 347.655762,404.528748 
	C346.157623,404.528778 344.659271,404.512024 343.161377,404.534851 
	C337.008453,404.628540 336.565491,405.004639 336.544220,411.020538 
	C336.498840,423.837830 336.489197,436.655487 336.549774,449.472656 
	C336.575470,454.910797 337.081055,455.375946 342.623138,455.451324 
	C348.943146,455.537292 355.247559,455.413208 361.544861,456.411865 
	C376.215179,458.738190 386.287231,470.087372 386.503357,484.966766 
	C386.607330,492.123322 386.545105,499.282135 386.512665,506.439819 
	C386.503693,508.425964 386.642120,510.455536 385.274353,512.635376 
	C299.979095,513.000000 214.958206,513.000000 129.468658,513.000000 
	C127.670433,511.525696 127.514984,509.698395 127.504036,507.851562 
	C127.455688,499.695160 127.264542,491.532593 127.553154,483.383606 
	C128.028336,469.967102 138.226898,458.809753 151.553253,456.547058 
	C158.167755,455.424011 164.807724,455.506104 171.464096,455.444000 
	C176.931580,455.392975 177.427475,454.892426 177.451721,449.385315 
	C177.508148,436.567963 177.504471,423.750092 177.454422,410.932709 
	C177.430893,404.906921 177.007477,404.541260 170.251312,404.538208 
	C127.304115,404.518768 84.356186,404.392395 41.410221,404.622009 
	C30.227201,404.681763 20.349943,402.020538 12.001593,394.480591 
	C6.150204,389.195831 1.911035,382.989471 1.226317,374.393890 
z"/>
<path fill="#FFFFFF" opacity="1.000000" stroke="none" 
	d="
M131.369293,54.288391 
	C131.016830,36.616222 131.010117,19.276766 131.001709,1.468655 
	C256.712799,1.000000 382.425598,1.019882 508.138275,0.904934 
	C511.947479,0.901451 513.189270,1.320715 513.135803,5.630953 
	C512.848450,28.771856 513.000000,51.918213 513.000000,75.531342 
	C509.903473,69.183769 507.455933,62.026871 501.456787,56.904732 
	C494.483276,50.950703 486.841919,46.972149 477.398193,46.976284 
	C397.251068,47.011387 317.103821,47.052391 236.957153,46.863445 
	C231.905655,46.851536 230.034622,48.078472 230.996918,53.454815 
	C229.828995,55.309147 228.202057,55.367733 226.087799,55.435791 
	C221.148285,55.365612 216.603287,56.463661 211.819641,54.351929 
	C206.565292,44.067261 199.810196,35.050423 194.536774,25.169447 
	C193.312637,22.875753 191.989700,24.241735 190.984726,25.916395 
	C186.041931,34.152920 180.973221,42.314838 176.127594,50.607483 
	C175.538513,51.615582 174.916763,52.487564 174.041016,53.650375 
	C169.538116,56.780163 164.661301,55.136822 159.531799,55.490898 
	C154.037216,55.636673 149.014526,55.583164 143.518494,55.491264 
	C139.251251,55.419327 135.396210,56.172535 131.369293,54.288391 
z"/>
<path fill="#FFFFFF" opacity="1.000000" stroke="none" 
	d="
M1.000000,374.468658 
	C4.061578,380.637238 6.377518,387.662537 12.173267,392.735687 
	C19.484268,399.135132 27.617210,403.053680 37.566170,403.037018 
	C83.022453,402.960968 128.479141,403.061462 173.934998,402.904083 
	C177.979538,402.890076 179.204742,403.677155 179.114761,407.948975 
	C178.806290,422.595093 178.842041,437.254395 179.097565,451.902557 
	C179.167328,455.901062 178.421249,457.297974 174.079514,457.118378 
	C165.246429,456.752960 156.307083,456.351135 147.683548,459.017548 
	C137.184418,462.263824 128.869247,472.410217 128.979935,484.589203 
	C129.063156,493.746307 128.996521,502.904816 128.998291,512.531372 
	C87.568092,513.000000 46.136047,512.954956 4.704569,513.087952 
	C1.486360,513.098328 0.920298,512.239319 0.927407,509.216400 
	C1.032658,464.456909 1.000000,419.697083 1.000000,374.468658 
z"/>
<path fill="#FFFFFF" opacity="1.000000" stroke="none" 
	d="
M385.468658,513.000000 
	C385.001190,503.837616 384.671570,494.660492 385.078583,485.516144 
	C385.743591,470.575531 372.469788,458.428162 360.057983,457.710236 
	C352.799500,457.290375 345.553589,457.283325 338.307617,457.070526 
	C335.802948,456.997009 334.914673,456.506744 334.937775,453.791840 
	C335.072601,437.967010 335.149017,422.138184 334.899536,406.316162 
	C334.838776,402.461395 336.889191,402.996094 339.202484,402.996552 
	C384.681305,403.005981 430.161804,402.779846 475.638062,403.121185 
	C492.248688,403.245880 508.631744,391.173920 512.633423,374.116425 
	C513.000000,419.092560 512.960571,464.185211 513.084351,509.277405 
	C513.093079,512.450562 512.301636,513.084900 509.234436,513.076416 
	C468.135620,512.962219 427.036438,513.000000 385.468658,513.000000 
z"/>
<path fill="#FFFFFF" opacity="1.000000" stroke="none" 
	d="
M44.531342,1.000000 
	C44.995220,18.370579 44.990444,35.741158 44.916145,53.578712 
	C41.698452,56.435043 37.832542,54.801437 34.053810,55.988319 
	C32.046562,56.302155 30.466043,56.859348 28.481228,56.221676 
	C27.431246,54.044876 26.587755,52.144211 26.026690,50.163540 
	C25.586349,48.609055 24.946142,49.051750 23.927477,49.510380 
	C12.337713,54.728371 4.694764,63.257999 1.368990,75.880722 
	C1.000000,52.088566 1.054621,28.176838 0.924463,4.266113 
	C0.909730,1.559470 1.382433,0.872642 4.211567,0.913891 
	C17.492867,1.107531 30.778559,1.000000 44.531342,1.000000 
z"/>
<path fill="#7FD6FD" opacity="1.000000" stroke="none" 
	d="
M225.718109,54.662491 
	C227.322403,54.133881 228.736771,54.056942 230.574280,53.941761 
	C231.290115,54.265213 231.757767,54.588726 231.846405,54.994946 
	C232.331741,57.219360 230.861633,60.413624 232.647522,61.531963 
	C234.469772,62.673080 237.448090,62.057766 239.920288,62.058277 
	C317.045776,62.074200 394.171295,62.069698 471.296783,62.072605 
	C489.258575,62.073284 497.984009,70.766563 497.983521,88.664230 
	C497.981537,157.127670 497.973907,225.591095 497.897217,294.517090 
	C495.947113,296.827423 493.524353,296.587799 491.224152,296.588837 
	C410.727417,296.625549 330.230682,296.633972 249.733978,296.586914 
	C242.297470,296.582581 241.401459,295.501312 241.397842,287.038239 
	C241.370636,223.540802 241.269318,160.042908 241.519150,96.546463 
	C241.553955,87.698936 240.159592,79.822128 234.871445,72.615562 
	C232.122742,68.869751 229.997711,64.663834 227.632874,60.641151 
	C226.625046,58.926773 225.477661,57.241901 225.718109,54.662491 
z"/>
<path fill="#D8D7DA" opacity="1.000000" stroke="none" 
	d="
M16.547743,366.336609 
	C16.194876,352.440735 16.150019,338.952911 15.980781,325.466675 
	C15.952747,323.232727 16.768005,322.485413 18.869904,322.699799 
	C19.859144,322.800690 20.867413,322.713989 21.867056,322.713989 
	C178.644714,322.713867 335.422394,322.739532 492.199890,322.593567 
	C497.041046,322.589050 498.264862,323.733398 498.106262,328.536346 
	C497.705017,340.685608 497.940582,352.855865 497.820007,365.471985 
	C493.354950,372.932312 486.431305,375.381683 478.788483,376.468994 
	C476.648987,376.773407 474.464600,376.612946 472.300079,376.612976 
	C328.759308,376.615143 185.218506,376.599518 41.677750,376.660004 
	C34.514435,376.663025 27.738518,375.777344 21.691416,371.646179 
	C19.753748,370.322418 17.912687,368.903564 16.547743,366.336609 
z"/>
<path fill="#FBD635" opacity="1.000000" stroke="none" 
	d="
M60.609917,295.318237 
	C59.335972,291.053345 60.375896,289.351349 64.901909,289.522430 
	C74.221786,289.874695 83.566406,289.516418 92.896317,289.691620 
	C95.967049,289.749298 96.826904,288.788422 96.857483,285.728699 
	C96.969009,274.570984 97.087395,274.572266 86.122772,274.572174 
	C78.789543,274.572113 71.451538,274.416321 64.125229,274.641449 
	C60.784134,274.744110 59.979622,273.602661 59.991043,270.378265 
	C60.029652,259.478882 59.897709,259.478455 70.905655,259.478455 
	C80.793320,259.478455 80.558746,259.471436 80.855598,249.487503 
	C80.984215,245.161667 79.534065,244.026321 75.494797,244.346695 
	C71.354385,244.675095 67.167244,244.435867 63.000889,244.403015 
	C61.717625,244.392899 60.136791,244.645493 60.116005,242.621521 
	C60.076645,238.789062 59.942513,234.947098 60.155029,231.126175 
	C60.301655,228.490021 62.636108,229.435104 64.078842,229.422394 
	C73.577965,229.338745 83.080551,229.258835 92.576744,229.445251 
	C95.787971,229.508270 96.866821,228.664917 96.868011,225.283707 
	C96.871872,214.327576 97.019264,214.327850 85.928215,214.327560 
	C78.428322,214.327362 70.926804,214.237518 63.429424,214.374496 
	C60.840252,214.421814 60.089695,213.600159 60.001957,210.981552 
	C59.610252,199.291199 59.517651,199.294296 71.117661,199.294296 
	C80.775352,199.294296 80.507523,199.284378 80.864250,189.649612 
	C81.031960,185.120102 79.651001,183.735916 75.288361,184.216309 
	C71.995003,184.578979 68.581993,183.932953 65.307777,184.372757 
	C60.602234,185.004822 59.847328,182.988663 59.975674,178.813690 
	C60.269199,169.265656 60.060337,169.259262 69.741570,169.259216 
	C77.408127,169.259171 85.076767,169.156509 92.740166,169.312027 
	C95.591782,169.369904 96.832809,168.842896 96.872093,165.539154 
	C97.006714,154.217911 97.155106,154.219742 85.806732,154.219666 
	C78.473503,154.219620 71.138512,154.127518 63.807980,154.268021 
	C61.171230,154.318558 60.046940,153.816849 59.986774,150.776535 
	C59.757519,139.191422 59.630203,139.193924 71.207161,139.193924 
	C80.776283,139.193924 80.504097,139.183777 80.866196,129.492081 
	C81.036400,124.936852 79.611488,123.645203 75.282303,124.086304 
	C71.653374,124.456055 67.933060,123.902206 64.296822,124.234474 
	C60.597115,124.572548 59.950760,123.067238 59.991375,119.715424 
	C60.119518,109.141975 59.981052,109.140350 70.696457,109.140282 
	C78.196350,109.140236 85.699104,109.020638 93.194687,109.200340 
	C96.076004,109.269417 96.798851,108.306381 96.851646,105.503181 
	C97.066200,94.110832 97.167145,94.112900 85.926918,94.112671 
	C78.427025,94.112518 70.925346,94.018837 63.428223,94.162598 
	C60.860142,94.211838 60.077240,93.478416 59.998058,90.819206 
	C59.648819,79.090591 59.550354,79.093521 71.028984,79.093521 
	C80.789513,79.093521 80.556389,79.086540 80.855530,69.101151 
	C80.984116,64.809135 79.600922,63.649712 75.542999,63.991188 
	C71.405746,64.339333 67.215904,64.096855 63.049923,64.045242 
	C61.985725,64.032059 60.290436,64.505463 60.212715,62.899895 
	C60.011597,58.745171 59.942822,54.560913 60.221218,50.415314 
	C60.373264,48.151165 62.588947,49.108501 63.878433,49.097420 
	C73.544243,49.014374 83.213036,48.943687 92.876480,49.116241 
	C95.866051,49.169632 96.847137,48.431080 96.867821,45.262280 
	C96.941124,34.030293 97.078331,34.031231 85.811134,34.031170 
	C78.477905,34.031132 71.142868,33.937965 63.812416,34.080673 
	C61.205559,34.131420 59.704605,33.746819 60.034546,30.634407 
	C60.537537,25.889585 58.015682,19.695280 61.081692,16.774021 
	C63.479477,14.489435 69.610008,16.045971 74.082458,16.030157 
	C86.248802,15.987129 98.418892,16.178696 110.579803,15.918168 
	C114.339790,15.837617 115.230270,16.842407 115.225258,20.575378 
	C115.103035,111.740234 115.118423,202.905273 115.024384,294.531860 
	C113.497505,296.377625 111.663704,296.561737 109.817757,296.573212 
	C94.988083,296.665527 80.158218,296.663177 65.328514,296.575470 
	C63.824070,296.566589 62.328575,296.416473 60.609917,295.318237 
z"/>
<path fill="#3EBEF7" opacity="1.000000" stroke="none" 
	d="
M225.449158,54.156487 
	C230.863358,62.648441 235.710587,71.152534 240.836060,79.485489 
	C242.496964,82.185791 243.032104,84.853142 243.029648,87.935890 
	C242.976349,154.871368 243.043961,221.807037 242.877075,288.742157 
	C242.864700,293.702820 243.969345,295.149719 249.150406,295.138214 
	C331.737122,294.954407 414.324341,295.002502 497.368774,294.988647 
	C498.517212,307.686676 498.517212,307.686676 486.027618,307.686676 
	C403.070404,307.686676 320.113190,307.693665 237.155960,307.675110 
	C229.413239,307.673401 230.370071,308.599976 230.367538,300.649841 
	C230.345322,231.019089 230.333832,161.388306 230.413712,91.757652 
	C230.417892,88.109947 229.600159,85.005875 227.695374,81.915176 
	C222.198578,72.996193 216.909729,63.949055 211.447327,54.585831 
	C215.900375,54.180328 220.445312,54.141239 225.449158,54.156487 
z"/>
<path fill="#3FC2FC" opacity="1.000000" stroke="none" 
	d="
M158.822144,54.530182 
	C163.753174,54.203201 168.381714,54.125359 173.470673,54.017719 
	C173.411194,58.289459 170.679504,61.605526 168.249771,64.743584 
	C157.339996,78.833740 154.645645,94.475418 154.886459,112.182899 
	C155.747055,175.459518 155.172516,238.755081 155.329132,302.042999 
	C155.340469,306.623260 154.193222,308.130493 149.578995,307.766785 
	C144.282318,307.349304 138.925110,307.573273 133.599060,307.709473 
	C131.053848,307.774536 129.800156,306.983276 130.154617,304.308197 
	C130.219681,303.817261 130.162766,303.310150 130.162766,302.810516 
	C130.162720,221.201889 130.161896,139.593277 130.171051,57.984653 
	C130.171188,56.824360 130.296463,55.664078 130.693451,54.229736 
	C134.682175,54.004162 138.340805,54.052647 142.450531,54.154282 
	C143.400635,54.663239 143.911865,55.172626 143.964371,55.850780 
	C144.590317,63.933735 144.584793,72.005577 144.046448,78.814705 
	C148.162598,71.451271 153.117554,62.981739 158.822144,54.530182 
z"/>
<path fill="#A9A8AE" opacity="1.000000" stroke="none" 
	d="
M16.213940,366.322510 
	C17.125141,366.420166 18.093386,366.777893 18.793053,367.425720 
	C24.430218,372.645050 31.032135,375.064026 38.736748,375.061890 
	C184.190659,375.021332 329.644623,375.006073 475.098480,375.097260 
	C483.854218,375.102753 490.799957,371.622894 497.390961,365.983124 
	C497.204224,377.979553 489.102173,386.339447 476.564087,387.690186 
	C474.914276,387.867920 473.237671,387.835358 471.573456,387.835449 
	C328.458679,387.841309 185.343903,387.829681 42.229134,387.868561 
	C33.647755,387.870880 26.047943,385.911957 20.623020,378.706055 
	C17.958323,375.166534 16.477577,371.146912 16.213940,366.322510 
z"/>
<path fill="#ED5A3C" opacity="1.000000" stroke="none" 
	d="
M170.817215,255.252167 
	C170.396240,245.745499 170.263840,236.594055 170.258469,227.442535 
	C170.234985,187.483749 170.242691,147.524933 170.271332,107.566139 
	C170.272369,106.122307 169.551224,104.190941 170.780014,103.325386 
	C172.443802,102.153412 173.771164,104.082970 175.112381,104.854149 
	C179.725693,107.506699 184.366791,110.137383 188.784225,113.094681 
	C191.613098,114.988503 193.805618,115.245102 196.821655,113.214592 
	C202.430267,109.438660 208.401810,106.201843 215.255447,102.126190 
	C215.255447,153.425140 215.255447,203.739243 215.177826,254.515457 
	C213.861755,256.354126 212.170807,256.522308 210.507294,256.541077 
	C198.675247,256.674530 186.842606,256.677368 175.010406,256.542938 
	C173.671463,256.527710 172.352570,256.303619 170.817215,255.252167 
z"/>
<path fill="#7ED7FE" opacity="1.000000" stroke="none" 
	d="
M28.083300,56.354530 
	C29.544739,55.657051 30.936483,55.334072 32.690109,55.061150 
	C34.871449,57.005444 34.619740,59.428665 34.620926,61.723446 
	C34.659908,137.163620 34.674206,212.603836 34.617023,288.043976 
	C34.611347,295.528625 33.436474,296.588959 25.777119,296.619293 
	C22.807972,296.631042 19.760822,297.064972 16.558414,295.324829 
	C16.128756,289.333038 16.025032,283.677185 16.023996,278.021332 
	C16.012432,214.929413 16.096825,151.837311 15.937898,88.745789 
	C15.911408,78.230324 19.035208,69.868172 28.527988,64.598396 
	C29.981136,63.791698 30.332127,62.919971 29.666487,61.401310 
	C29.005074,59.892296 28.555870,58.290268 28.083300,56.354530 
z"/>
<path fill="#D8D7DA" opacity="1.000000" stroke="none" 
	d="
M194.879730,445.247559 
	C194.476212,435.272125 194.420715,425.652985 194.492432,415.591919 
	C196.396866,413.124634 198.843781,413.405518 201.123505,413.402222 
	C238.373138,413.348419 275.622833,413.355072 312.872528,413.387512 
	C314.863098,413.389252 316.881134,413.360107 319.036346,414.780731 
	C319.473846,424.755920 319.569519,434.369598 319.567352,444.434448 
	C317.667938,446.875244 315.223358,446.597626 312.938873,446.600830 
	C275.646881,446.652802 238.354874,446.646454 201.062866,446.614899 
	C199.070038,446.613220 197.050247,446.645203 194.879730,445.247559 
z"/>
<path fill="#40C3FE" opacity="1.000000" stroke="none" 
	d="
M16.110340,295.448120 
	C20.514616,294.993958 24.848505,294.887238 29.172798,295.044495 
	C31.930750,295.144775 33.239742,294.208191 32.975624,291.338104 
	C32.854061,290.017120 32.957275,288.675507 32.957443,287.343262 
	C32.967045,210.238785 32.976524,133.134308 33.019005,55.570518 
	C36.526985,53.092186 40.331711,54.484089 44.403591,54.051178 
	C44.913448,55.703957 45.038555,57.362217 45.038750,59.020493 
	C45.048309,140.053757 45.003109,221.087097 45.160698,302.120056 
	C45.169781,306.791962 43.872501,308.023895 39.392021,307.760193 
	C32.925083,307.379639 26.414724,307.522125 19.931761,307.724915 
	C16.961664,307.817810 15.631802,307.101776 15.962611,303.888550 
	C16.233892,301.253540 16.029457,298.569611 16.110340,295.448120 
z"/>
<path fill="#ADACB1" opacity="1.000000" stroke="none" 
	d="
M369.086823,484.710083 
	C370.586487,497.980255 370.586487,497.980286 357.739777,497.980286 
	C288.690216,497.980286 219.640503,497.923157 150.591354,498.097443 
	C145.507111,498.110260 143.285645,496.999786 144.149765,491.686493 
	C144.466141,489.741058 144.203842,487.701538 144.332489,485.315430 
	C146.650497,483.465271 149.126831,483.346954 151.647446,483.346649 
	C221.880432,483.338287 292.113403,483.334534 362.346405,483.363953 
	C364.494324,483.364868 366.701111,483.213745 369.086823,484.710083 
z"/>
<path fill="#D8D7DA" opacity="1.000000" stroke="none" 
	d="
M369.570740,484.525879 
	C350.078491,484.968964 330.616455,485.048553 311.154388,485.049164 
	C255.925430,485.050964 200.696457,485.020538 144.963470,484.964355 
	C145.702194,476.877411 150.091248,472.989075 158.251953,472.986115 
	C223.983078,472.962128 289.714203,472.964905 355.445343,472.982178 
	C363.563873,472.984314 367.578918,476.209686 369.570740,484.525879 
z"/>
<path fill="#ADACB2" opacity="1.000000" stroke="none" 
	d="
M194.423157,445.350342 
	C235.889267,444.912842 277.246826,444.934448 319.036957,444.920837 
	C320.413513,457.938599 320.413513,457.938538 307.598602,457.938538 
	C271.855042,457.938538 236.110626,457.817230 200.368912,458.074493 
	C195.234543,458.111450 193.484100,456.757507 194.253067,451.786926 
	C194.554596,449.837921 194.310318,447.804504 194.423157,445.350342 
z"/>
<path fill="#A8A7AC" opacity="1.000000" stroke="none" 
	d="
M319.516724,414.689545 
	C278.076263,415.125763 236.774307,415.109314 195.046005,415.121399 
	C193.258026,402.856934 193.258026,402.856934 205.149185,402.856934 
	C241.061005,402.856934 276.972870,402.833496 312.884613,402.875305 
	C320.746613,402.884430 319.611786,401.775696 319.718842,409.749756 
	C319.738892,411.244904 319.678528,412.741150 319.516724,414.689545 
z"/>
<path fill="#F2BA2C" opacity="1.000000" stroke="none" 
	d="
M60.165710,295.435577 
	C78.169136,294.985901 96.089745,294.995117 114.474991,294.998901 
	C115.792976,307.692169 115.792976,307.692169 103.234047,307.692139 
	C90.465439,307.692139 77.693932,307.539978 64.929977,307.783691 
	C61.036831,307.858032 59.481430,306.841583 60.004169,302.851990 
	C60.303356,300.568573 60.074181,298.215942 60.165710,295.435577 
z"/>
<path fill="#CC3423" opacity="1.000000" stroke="none" 
	d="
M170.357574,255.356018 
	C185.029770,254.933105 199.589340,254.969223 214.624542,254.991455 
	C215.170441,255.128250 215.285522,255.273514 215.304535,255.430420 
	C216.795364,267.726410 216.794815,267.726501 204.506088,267.726501 
	C194.696259,267.726501 184.880966,267.536682 175.079254,267.818878 
	C171.099197,267.933441 169.630188,266.740601 170.118866,262.790375 
	C170.402802,260.495178 170.218536,258.142090 170.357574,255.356018 
z"/>
<path fill="#F0B82B" opacity="1.000000" stroke="none" 
	d="
M214.676727,294.691711 
	C216.405914,307.700256 216.405914,307.700287 203.996857,307.700256 
	C194.375031,307.700256 184.747849,307.513763 175.134003,307.790863 
	C171.219315,307.903687 169.661972,306.826752 170.180176,302.830200 
	C170.476562,300.544373 170.262222,298.192352 170.388718,295.417542 
	C171.758682,293.629517 173.442703,293.476074 175.099380,293.458435 
	C186.883942,293.332825 198.669067,293.332184 210.453751,293.455566 
	C211.787262,293.469513 213.103043,293.680542 214.676727,294.691711 
z"/>
<path fill="#FDD835" opacity="1.000000" stroke="none" 
	d="
M215.180664,294.522095 
	C200.509247,294.978027 185.940155,294.978058 170.935333,294.971527 
	C169.581879,282.635254 169.581879,282.635223 181.652115,282.635254 
	C191.293121,282.635254 200.941574,282.856415 210.571609,282.531525 
	C214.687088,282.392670 215.807877,283.830750 215.364212,287.589172 
	C215.112457,289.721680 215.295639,291.905518 215.180664,294.522095 
z"/>
<path fill="#FAC075" opacity="1.000000" stroke="none" 
	d="
M205.850769,75.718987 
	C213.311432,85.730942 212.916870,85.174561 203.413116,91.914268 
	C195.907623,97.236893 190.037018,97.516785 182.445618,91.997482 
	C173.484985,85.482689 173.035828,86.100464 179.291809,76.021790 
	C182.958023,74.861168 185.194550,77.317215 187.543900,78.908554 
	C191.182968,81.373520 194.349030,81.541153 198.012451,78.927582 
	C200.218842,77.353493 202.432327,75.308975 205.850769,75.718987 
z"/>
<path fill="#F9D4A5" opacity="1.000000" stroke="none" 
	d="
M206.094543,75.562004 
	C202.839706,76.979103 200.084885,79.072113 197.193680,80.907280 
	C194.378342,82.694290 191.836670,83.528786 188.742447,81.019585 
	C186.227554,78.980179 183.101364,77.694588 179.892059,75.937744 
	C183.799454,68.508575 188.061050,61.216366 192.821686,53.070244 
	C197.456573,60.841518 201.742737,68.028107 206.094543,75.562004 
z"/>
<path fill="#7FD8FF" opacity="1.000000" stroke="none" 
	d="
M158.656906,54.180923 
	C156.845520,61.631092 151.715866,67.421318 148.238739,74.119171 
	C146.969681,76.563728 145.322647,78.812080 142.943863,80.994247 
	C142.943863,72.366730 142.943863,63.739220 142.922760,54.659569 
	C147.997482,54.165222 153.093338,54.123009 158.656906,54.180923 
z"/>
<path fill="#020302" opacity="1.000000" stroke="none" 
	d="
M406.999908,162.227646 
	C375.181854,162.227646 343.863495,162.161530 312.546204,162.313095 
	C308.724518,162.331589 307.528412,161.479141 307.560211,157.447662 
	C307.759796,132.128265 307.723938,106.806190 307.587097,81.485970 
	C307.568634,78.066765 308.402130,77.002861 311.966461,77.010139 
	C367.605743,77.123817 423.245331,77.117241 478.884644,77.019661 
	C482.133972,77.013962 483.061249,77.853073 483.043823,81.147911 
	C482.907990,106.801331 482.882050,132.456390 483.063416,158.109253 
	C483.090240,161.902618 481.671844,162.309067 478.464935,162.292709 
	C454.810425,162.172043 431.155060,162.227554 406.999908,162.227646 
z"/>
<path fill="#010102" opacity="1.000000" stroke="none" 
	d="
M276.013947,230.000000 
	C276.013977,244.822906 276.121002,259.147217 275.933716,273.467682 
	C275.890533,276.769318 276.820557,277.649109 280.081207,277.648376 
	C291.280792,277.645935 291.163300,277.774139 291.109253,288.728912 
	C291.094452,291.729034 290.404968,292.739960 287.245636,292.694214 
	C274.757355,292.513214 262.263336,292.513306 249.775055,292.694275 
	C246.620880,292.739960 245.923676,291.740387 245.908936,288.735168 
	C245.855118,277.761841 245.737091,277.634796 256.926147,277.648407 
	C260.175751,277.652374 261.083069,276.792542 261.077179,273.482056 
	C260.972351,214.358597 260.971405,155.234863 261.078278,96.111443 
	C261.084381,92.735001 260.036377,92.025749 256.873535,92.038315 
	C245.746002,92.082504 245.862640,91.962959 245.909348,80.934700 
	C245.922073,77.933464 246.598236,76.962242 249.763245,77.011696 
	C262.251099,77.206833 274.745483,77.202911 287.233521,77.013725 
	C290.362793,76.966316 291.099426,77.876205 291.111938,80.914093 
	C291.157379,91.962532 291.277374,92.146446 280.163208,92.012054 
	C276.408508,91.966660 275.941223,93.352409 275.948364,96.596901 
	C276.045807,140.897766 276.013947,185.198914 276.013947,230.000000 
z"/>
<path fill="#040504" opacity="1.000000" stroke="none" 
	d="
M359.999817,232.392426 
	C343.686584,232.392319 327.872284,232.294571 312.061005,232.469223 
	C308.642548,232.506973 307.523132,231.682739 307.568909,228.100647 
	C307.766632,212.622879 307.749084,197.140076 307.579559,181.661636 
	C307.541840,178.215652 308.477081,177.148727 312.012482,177.170975 
	C335.814575,177.320740 359.618469,177.315262 383.420685,177.174942 
	C386.848206,177.154739 387.973022,177.989868 387.927795,181.572662 
	C387.732330,197.050491 387.740936,212.533417 387.922729,228.011581 
	C387.963806,231.508881 386.961853,232.580170 383.468109,232.468124 
	C375.819061,232.222855 368.156738,232.392303 359.999817,232.392426 
z"/>
<path fill="#030403" opacity="1.000000" stroke="none" 
	d="
M402.856384,223.976517 
	C402.856384,209.658157 403.032196,195.832077 402.748932,182.015411 
	C402.664276,177.888077 404.039978,177.144424 407.805664,177.170395 
	C431.286102,177.332382 454.768646,177.322769 478.249268,177.175949 
	C481.773102,177.153915 483.143219,177.745102 483.076996,181.720154 
	C482.819000,197.203674 482.847473,212.695770 483.062775,228.180603 
	C483.113892,231.857376 481.847321,232.479950 478.529572,232.459976 
	C455.881531,232.323761 433.232269,232.388763 410.583405,232.388794 
	C402.856720,232.388794 402.856720,232.388672 402.856384,223.976517 
z"/>
<path fill="#F7FCFF" opacity="1.000000" stroke="none" 
	d="
M445.797638,257.247986 
	C445.668793,269.416046 447.195282,267.749268 435.826813,267.853058 
	C428.676605,267.918335 421.523224,267.763611 414.375366,267.908325 
	C411.133820,267.973907 409.966095,266.744354 410.032471,263.512238 
	C410.309143,250.032059 408.412231,252.347717 420.831573,252.165222 
	C427.648315,252.065048 434.472046,252.292297 441.284210,252.088928 
	C444.846375,251.982574 446.176361,253.415253 445.797638,257.247986 
z"/>
<path fill="#F7FDFF" opacity="1.000000" stroke="none" 
	d="
M317.377533,267.830261 
	C313.096436,265.710602 315.214081,262.154480 315.130096,259.357422 
	C314.889526,251.345947 314.035645,252.197525 322.208710,252.157761 
	C330.037567,252.119659 337.868744,252.251923 345.694794,252.099030 
	C348.750824,252.039322 350.115265,252.715942 350.168549,256.195618 
	C350.347290,267.865417 350.489899,267.864349 338.824341,267.862823 
	C331.828186,267.861908 324.832062,267.856873 317.377533,267.830261 
z"/>
<path fill="#F5FCFF" opacity="1.000000" stroke="none" 
	d="
M463.413757,267.856842 
	C460.855988,267.760406 460.299042,266.499664 460.083588,264.574982 
	C458.763794,252.784302 459.949371,251.485184 471.772583,252.142624 
	C472.269623,252.170273 472.853821,252.015884 473.252197,252.224152 
	C478.610291,255.025116 474.795532,259.907715 475.746552,263.731537 
	C476.335754,266.100586 475.362366,267.977203 472.334991,267.881683 
	C469.514221,267.792633 466.688293,267.866150 463.413757,267.856842 
z"/>
<path fill="#F6FCFF" opacity="1.000000" stroke="none" 
	d="
M380.106903,257.142944 
	C380.106262,268.094238 380.106171,267.944458 369.448914,267.950500 
	C365.903198,267.952515 364.547211,266.794434 365.038574,263.369598 
	C365.061951,263.206635 365.042755,263.037384 365.041229,262.871063 
	C364.941284,251.895035 364.941040,252.044220 375.695801,252.062103 
	C379.251587,252.068024 380.599152,253.243866 380.106903,257.142944 
z"/>
<path fill="#FDFDFD" opacity="1.000000" stroke="none" 
	d="
M219.041779,352.167847 
	C218.870285,349.389343 219.432755,347.726166 222.256729,347.960052 
	C223.082840,348.028473 223.919861,347.965302 224.751877,347.962402 
	C235.802338,347.923889 236.494339,348.741272 234.945526,359.709778 
	C234.745834,361.123901 234.449036,362.666382 232.927383,362.740997 
	C228.952148,362.936005 224.951920,362.936493 220.979294,362.708038 
	C219.471420,362.621277 219.069962,361.052460 219.063049,359.620605 
	C219.051788,357.290985 219.047897,354.961395 219.041779,352.167847 
z"/>
<path fill="#FCFCFC" opacity="1.000000" stroke="none" 
	d="
M249.046219,358.685150 
	C249.040817,347.781647 249.041718,347.937805 260.226440,347.872986 
	C263.960876,347.851349 265.077271,348.963257 265.043854,352.692535 
	C264.953827,362.738861 261.296631,365.603882 251.486572,362.908112 
	C249.391556,362.332367 249.061432,360.917969 249.046219,358.685150 
z"/>
<path fill="#FDFDFD" opacity="1.000000" stroke="none" 
	d="
M279.052551,357.761383 
	C279.051697,347.957825 279.051697,347.957825 288.161377,347.962372 
	C294.955292,347.965759 294.955811,347.965759 294.959015,354.613617 
	C294.959717,356.111359 294.908875,357.610779 294.963806,359.106445 
	C295.064240,361.842346 293.791687,363.071716 291.057281,362.987122 
	C288.563507,362.909973 286.055542,362.833160 283.571503,363.007568 
	C279.989166,363.259125 278.733490,361.541473 279.052551,357.761383 
z"/>
<path fill="#FEFAFA" opacity="1.000000" stroke="none" 
	d="
M185.250336,135.276886 
	C185.280228,133.466965 185.174576,132.039673 187.079529,131.882309 
	C187.575516,131.841339 188.076385,131.863297 188.573532,131.832336 
	C200.280060,131.103409 200.280075,131.102783 200.279984,142.838959 
	C200.279892,154.470596 200.177063,166.103714 200.346283,177.732880 
	C200.392853,180.933029 199.548462,182.003586 196.200119,182.010910 
	C185.247711,182.034866 185.247940,182.175888 185.248032,171.141983 
	C185.248138,159.344177 185.248383,147.546371 185.250336,135.276886 
z"/>
<path fill="#FFFBFA" opacity="1.000000" stroke="none" 
	d="
M186.431305,251.858047 
	C184.313385,244.221054 184.416733,236.374725 185.716522,229.117325 
	C186.589432,224.243561 193.070862,227.977539 196.911667,227.018326 
	C198.902740,226.521072 200.373322,227.124405 200.316406,229.801224 
	C200.178741,236.275879 200.208618,242.756363 200.306152,249.232468 
	C200.339661,251.457626 199.417328,252.106201 197.340683,252.034943 
	C193.856689,251.915375 190.366257,251.982330 186.431305,251.858047 
z"/>
<path fill="#FEFAF9" opacity="1.000000" stroke="none" 
	d="
M185.245880,205.902557 
	C185.245438,196.916779 185.245972,196.859299 193.412094,196.934433 
	C201.316757,197.007187 200.197678,195.787323 200.266327,203.716522 
	C200.337769,211.965317 200.282349,211.878418 191.866119,212.002380 
	C187.845261,212.061584 183.916275,212.422958 185.245880,205.902557 
z"/>
<path fill="#AFEE5F" opacity="1.000000" stroke="none" 
	d="
M323.391205,135.245605 
	C322.905762,121.613853 322.840607,108.289413 322.696655,94.965820 
	C322.673431,92.817375 323.470886,91.894470 325.619965,92.106895 
	C326.445099,92.188454 327.285217,92.117500 328.118530,92.117493 
	C372.950500,92.117348 417.782745,92.190529 462.613922,92.003532 
	C467.069427,91.984947 468.180023,93.097366 468.058167,97.486725 
	C467.720734,109.643799 467.919250,121.815765 467.829498,134.438080 
	C465.933716,136.822571 463.511475,136.611969 461.218414,136.614456 
	C417.341339,136.661804 373.464264,136.656433 329.587158,136.624985 
	C327.599518,136.623550 325.578033,136.671783 323.391205,135.245605 
z"/>
<path fill="#64DD17" opacity="1.000000" stroke="none" 
	d="
M322.901642,135.400940 
	C370.947449,134.929489 418.897827,134.920959 467.300659,134.903381 
	C468.496857,147.165604 468.496857,147.165604 456.511749,147.165604 
	C414.413452,147.165604 372.315125,147.165695 330.216827,147.165527 
	C322.748077,147.165497 322.745819,147.165039 322.758179,139.856476 
	C322.760437,138.525589 322.789551,137.194748 322.901642,135.400940 
z"/>
<path fill="#F6D233" opacity="1.000000" stroke="none" 
	d="
M323.356506,205.294586 
	C321.927521,192.285614 321.927521,192.285614 334.612000,192.285614 
	C345.713623,192.285614 356.819061,192.450317 367.914856,192.196136 
	C371.788269,192.107391 373.398773,193.101212 372.865692,197.121414 
	C372.563263,199.402451 372.789673,201.753616 372.679688,204.525146 
	C371.200134,206.497650 369.322144,206.546967 367.503693,206.561508 
	C354.362793,206.666656 341.221466,206.658920 328.080414,206.570312 
	C326.577728,206.560181 325.084625,206.407410 323.356506,205.294586 
z"/>
<path fill="#F8BE2D" opacity="1.000000" stroke="none" 
	d="
M322.857910,205.457336 
	C339.205505,204.995987 355.452332,204.991867 372.140320,204.982422 
	C373.442413,217.358139 373.442413,217.358170 361.436462,217.358139 
	C350.120483,217.358109 338.799316,217.161926 327.491272,217.461563 
	C323.387390,217.570297 322.227325,216.179626 322.675568,212.398865 
	C322.928680,210.264221 322.744385,208.077698 322.857910,205.457336 
z"/>
<path fill="#FDD835" opacity="1.000000" stroke="none" 
	d="
M418.469482,205.303726 
	C417.319519,192.305969 417.319519,192.305969 429.776001,192.305969 
	C440.875854,192.305969 451.979614,192.473068 463.073486,192.215042 
	C466.937195,192.125168 468.529785,193.103394 467.993561,197.111099 
	C467.688599,199.390579 467.925415,201.742523 467.843445,204.518707 
	C466.382599,206.491989 464.504944,206.549850 462.681458,206.564301 
	C449.519562,206.668655 436.357239,206.660156 423.195190,206.573135 
	C421.690582,206.563202 420.194733,206.414490 418.469482,205.303726 
z"/>
<path fill="#F3BB2C" opacity="1.000000" stroke="none" 
	d="
M417.998474,205.447327 
	C434.345032,204.987442 450.603241,204.986893 467.315033,204.980957 
	C468.503815,217.376053 468.503815,217.376068 456.297821,217.376053 
	C445.201141,217.376038 434.099487,217.185532 423.010406,217.475830 
	C418.943634,217.582275 417.212585,216.610977 417.830688,212.358063 
	C418.137329,210.248306 417.900848,208.059616 417.998474,205.447327 
z"/>
</svg>